<svg width="35" height="34" viewBox="0 0 35 34" fill="none" xmlns="http://www.w3.org/2000/svg">
<g id="name">
<g id="Group">
<g id="Group_2">
<path id="Vector" opacity="0.4" d="M23.392 33.1194C19.8064 34.1944 16.6996 32.8644 16.9539 28.135C17.2082 23.4057 11.8578 26.4466 4.35084 20.5597C-3.15682 14.6733 -0.388655 7.03755 8.3745 1.90524C17.1377 -3.22707 33.5658 2.07054 33.266 17.0707C32.9661 32.0708 23.392 33.1194 23.392 33.1194Z" fill="url(#paint0_linear_1954_52788)"/>
<path id="Vector_2" d="M0.548675 18.1192C-0.144 13.6973 3.0112 7.70449 8.76384 4.72653C14.5165 1.74857 33.6209 -3.78235 32.3839 14.6728C31.1468 33.128 17.1971 30.7588 12.2146 29.533C7.23199 28.3068 1.43523 23.7778 0.548675 18.1192Z" fill="url(#paint1_linear_1954_52788)"/>
</g>
</g>
<g id="1222, Call, Communication, Contact, Contact Us, Conversation">
<g id="Group_3">
<path id="Vector_3" d="M26.1113 7.99264H13.9599V7.27181C13.9599 6.46448 13.2739 5.80133 12.4406 5.80133H10.5356C9.70239 5.80133 9.01636 6.46448 9.01636 7.27181V7.99264H7.88571C7.67666 7.99264 7.5 8.16563 7.5 8.36746V23.7932C7.5 23.995 7.67961 24.168 7.88571 24.168H26.1143C26.3233 24.168 26.5 23.995 26.5 23.7932V8.36746C26.5 8.16563 26.3204 7.99264 26.1143 7.99264H26.1113ZM9.78778 7.24298C9.78778 6.83932 10.1146 6.52216 10.5327 6.52216H12.4377C12.8558 6.52216 13.1826 6.83932 13.1826 7.24298V21.1982C13.1826 21.6018 12.8558 21.919 12.4377 21.919H10.5327C10.1146 21.919 9.78778 21.6018 9.78778 21.1982C9.78778 21.227 9.78778 7.24298 9.78778 7.24298ZM25.7227 23.4183H8.26848V8.71346H9.01341V21.1982C9.01341 22.0055 9.69945 22.6687 10.5327 22.6687H12.4377C13.271 22.6687 13.957 22.0055 13.957 21.1982V8.71346H25.7227V23.4183Z" fill="#FDFEFF"/>
<path id="Vector_4" d="M15.0908 13.8744H24.5923C24.8013 13.8744 24.978 13.7014 24.978 13.4996V9.83778C24.978 9.63595 24.7984 9.46295 24.5923 9.46295H15.0908C14.8817 9.46295 14.7051 9.63595 14.7051 9.83778V13.4996C14.7345 13.7014 14.8847 13.8744 15.0908 13.8744ZM15.4765 10.1838H24.2036V13.1247H15.4765V10.1838Z" fill="#FDFEFF"/>
<path id="Vector_5" d="M19.2605 14.5953H17.7412C17.5321 14.5953 17.3525 14.7683 17.3525 14.9702V16.4406C17.3525 16.6425 17.5321 16.8155 17.7412 16.8155H19.2605C19.4695 16.8155 19.6462 16.6425 19.6462 16.4406V14.9702C19.6462 14.7683 19.4666 14.5953 19.2605 14.5953ZM19.2605 16.4406H17.7412V14.9702H19.2605V16.4406Z" fill="#FDFEFF"/>
<path id="Vector_6" d="M19.2605 17.5363H17.7412C17.5321 17.5363 17.3525 17.7093 17.3525 17.9112V19.3817C17.3525 19.5835 17.5321 19.7565 17.7412 19.7565H19.2605C19.4695 19.7565 19.6462 19.5835 19.6462 19.3817V17.9112C19.6462 17.7093 19.4666 17.5363 19.2605 17.5363ZM19.2605 19.3817H17.7412V17.9112H19.2605V19.3817Z" fill="#FDFEFF"/>
<path id="Vector_7" d="M19.2605 20.4774H17.7412C17.5321 20.4774 17.3525 20.6504 17.3525 20.8522V22.3227C17.3525 22.5245 17.5321 22.6975 17.7412 22.6975H19.2605C19.4695 22.6975 19.6462 22.5245 19.6462 22.3227V20.8522C19.6462 20.6504 19.4666 20.4774 19.2605 20.4774ZM19.2605 22.3227H17.7412V20.8522H19.2605V22.3227Z" fill="#FDFEFF"/>
<path id="Vector_8" d="M15.0908 16.8155H16.6101C16.8191 16.8155 16.9958 16.6425 16.9958 16.4406V14.9702C16.9958 14.7683 16.8162 14.5953 16.6101 14.5953H15.0908C14.8817 14.5953 14.7051 14.7683 14.7051 14.9702V16.4406C14.7345 16.6425 14.8847 16.8155 15.0908 16.8155ZM15.0908 14.9702H16.6101V16.4406H15.0908V14.9702Z" fill="#FDFEFF"/>
<path id="Vector_9" d="M15.0908 19.7565H16.6101C16.8191 19.7565 16.9958 19.5835 16.9958 19.3817V17.9112C16.9958 17.7093 16.8162 17.5363 16.6101 17.5363H15.0908C14.8817 17.5363 14.7051 17.7093 14.7051 17.9112V19.3817C14.7345 19.5835 14.8847 19.7565 15.0908 19.7565ZM15.0908 17.9112H16.6101V19.3817H15.0908V17.9112Z" fill="#FDFEFF"/>
<path id="Vector_10" d="M15.0908 22.6975H16.6101C16.8191 22.6975 16.9958 22.5245 16.9958 22.3227V20.8522C16.9958 20.6504 16.8162 20.4774 16.6101 20.4774H15.0908C14.8817 20.4774 14.7051 20.6504 14.7051 20.8522V22.3227C14.7345 22.5245 14.8847 22.6975 15.0908 22.6975ZM15.0908 20.8522H16.6101V22.3227H15.0908V20.8522Z" fill="#FDFEFF"/>
<path id="Vector_11" d="M21.9422 20.4774H20.4229C20.2138 20.4774 20.0342 20.6504 20.0342 20.8522V22.3227C20.0342 22.5245 20.2138 22.6975 20.4229 22.6975H21.9422C22.1512 22.6975 22.3308 22.5245 22.3308 22.3227V20.8522C22.3014 20.6504 22.1512 20.4774 21.9422 20.4774ZM21.9422 22.3227H20.4229V20.8522H21.9422V22.3227Z" fill="#FDFEFF"/>
<path id="Vector_12" d="M21.9422 17.5363H20.4229C20.2138 17.5363 20.0342 17.7093 20.0342 17.9112V19.3817C20.0342 19.5835 20.2138 19.7565 20.4229 19.7565H21.9422C22.1512 19.7565 22.3308 19.5835 22.3308 19.3817V17.9112C22.3014 17.7093 22.1512 17.5363 21.9422 17.5363ZM21.9422 19.3817H20.4229V17.9112H21.9422V19.3817Z" fill="#FDFEFF"/>
<path id="Vector_13" d="M21.9422 14.5953H20.4229C20.2138 14.5953 20.0342 14.7683 20.0342 14.9702V16.4406C20.0342 16.6425 20.2138 16.8155 20.4229 16.8155H21.9422C22.1512 16.8155 22.3308 16.6425 22.3308 16.4406V14.9702C22.3014 14.7683 22.1512 14.5953 21.9422 14.5953ZM21.9422 16.4406H20.4229V14.9702H21.9422V16.4406Z" fill="#FDFEFF"/>
<path id="Vector_14" d="M24.5925 14.5953H23.0732C22.8642 14.5953 22.6846 14.7683 22.6846 14.9702V16.4406C22.6846 16.6425 22.8642 16.8155 23.0732 16.8155H24.5925C24.8016 16.8155 24.9782 16.6425 24.9782 16.4406V14.9702C24.9782 14.7683 24.7986 14.5953 24.5925 14.5953ZM24.5925 16.4406H23.0732V14.9702H24.5925V16.4406Z" fill="#FDFEFF"/>
<path id="Vector_15" d="M24.5925 17.5363H23.0732C22.8642 17.5363 22.6846 17.7093 22.6846 17.9112V19.3817C22.6846 19.5835 22.8642 19.7565 23.0732 19.7565H24.5925C24.8016 19.7565 24.9782 19.5835 24.9782 19.3817V17.9112C24.9782 17.7093 24.7986 17.5363 24.5925 17.5363ZM24.5925 19.3817H23.0732V17.9112H24.5925V19.3817Z" fill="#FDFEFF"/>
<path id="Vector_16" d="M24.5925 20.4774H23.0732C22.8642 20.4774 22.6846 20.6504 22.6846 20.8522V22.3227C22.6846 22.5245 22.8642 22.6975 23.0732 22.6975H24.5925C24.8016 22.6975 24.9782 22.5245 24.9782 22.3227V20.8522C24.9782 20.6504 24.7986 20.4774 24.5925 20.4774ZM24.5925 22.3227H23.0732V20.8522H24.5925V22.3227Z" fill="#FDFEFF"/>
</g>
</g>
</g>
<defs>
<linearGradient id="paint0_linear_1954_52788" x1="30.6918" y1="7.56901" x2="6.45004" y2="24.6272" gradientUnits="userSpaceOnUse">
<stop stop-color="#9059E5"/>
<stop offset="1" stop-color="#3862FF"/>
</linearGradient>
<linearGradient id="paint1_linear_1954_52788" x1="15.1282" y1="30.1465" x2="17.6946" y2="1.17362" gradientUnits="userSpaceOnUse">
<stop stop-color="#9059E5"/>
<stop offset="1" stop-color="#3862FF"/>
</linearGradient>
</defs>
</svg>
