<svg width="34" height="34" viewBox="0 0 34 34" fill="none" xmlns="http://www.w3.org/2000/svg">
<path opacity="0.4" d="M23.392 33.1191C19.8064 34.1941 16.6996 32.8641 16.9539 28.1348C17.2082 23.4054 11.8578 26.4463 4.35084 20.5595C-3.15682 14.673 -0.388655 7.03728 8.3745 1.90497C17.1377 -3.22734 33.5658 2.07027 33.266 17.0704C32.9661 32.0705 23.392 33.1191 23.392 33.1191Z" fill="url(#paint0_linear_2041_8560)"/>
<path d="M0.548667 18.1189C-0.144008 13.697 3.01119 7.70417 8.76384 4.72621C14.5165 1.74825 33.6209 -3.78267 32.3839 14.6725C31.1468 33.1277 17.1971 30.7585 12.2145 29.5327C7.23198 28.3065 1.43522 23.7775 0.548667 18.1189Z" fill="url(#paint1_linear_2041_8560)"/>
<path d="M24.4327 9.2858C22.5512 7.209 19.8234 6.00012 17.0027 6.00012C11.5163 6.00012 7 10.4017 7 15.8881C7 20.0417 9.60374 23.6374 13.3978 25.0942C17.2538 26.5821 21.6771 25.5282 24.4358 22.4595C27.8547 18.7089 27.8547 13.0364 24.4358 9.2858H24.4327ZM18.6641 24.3503C18.2891 24.6293 17.8489 24.8153 17.3778 24.9083V21.0026C18.6021 21.0336 19.7304 21.1576 20.7626 21.4056C20.3225 22.4905 19.6344 23.6684 18.661 24.3503H18.6641ZM14.4951 22.7075C14.4021 22.4595 14.213 22.2735 13.9309 22.1805C13.6178 22.0875 13.2738 21.9325 13.0227 21.7156C12.7406 21.4986 12.7096 21.3436 12.7096 21.3126C12.7096 21.3126 12.8336 21.0646 13.8689 20.9406C14.089 20.9096 14.7771 20.8477 14.9662 20.3207C15.1553 19.7938 14.6531 19.2668 14.244 18.8639C14.182 18.8019 14.151 18.7709 14.0859 18.7089C13.9278 18.5539 13.8968 18.3679 13.9619 18.1819C14.0549 17.841 14.3711 17.5 14.7151 17.376H14.8081C15.0592 17.407 15.4994 17.717 15.8124 18.3679C16.1875 19.1428 16.4696 20.1967 16.5657 21.0026V24.9083C15.6574 24.8773 14.7771 24.6913 13.9309 24.4123C14.275 23.9474 14.6841 23.2654 14.4951 22.7075ZM20.7967 10.3397C19.6994 10.5877 18.5402 10.7117 17.4088 10.7427V6.80604C19.0392 7.08502 20.1675 8.82084 20.7967 10.3397ZM21.0788 20.6307C19.9505 20.3827 18.6951 20.2277 17.4088 20.1967V16.2601H21.7979C21.7669 17.748 21.5159 19.2668 21.0757 20.6307H21.0788ZM21.0788 11.0836C21.55 12.4785 21.77 13.9973 21.801 15.4542H17.4119V11.5176C18.6362 11.4866 19.8575 11.3626 21.0819 11.0836H21.0788ZM22.5853 15.4542C22.5543 13.9353 22.3342 12.3545 21.832 10.8666C22.5853 10.6497 23.3695 10.3707 24.0576 10.0297C25.344 11.5486 26.0972 13.4704 26.1902 15.4542H22.5853ZM19.6684 7.17801C21.1098 7.61196 22.3962 8.38689 23.4935 9.44078C22.8673 9.71976 22.2381 9.96773 21.581 10.1537C21.1408 9.03783 20.5457 7.98393 19.6684 7.17801ZM12.4865 7.95293C13.1126 8.2319 14.619 9.03783 14.8391 9.68876C14.8701 9.81275 14.8701 9.93674 14.7151 10.0607C14.275 10.4947 13.6178 10.6497 13.0227 10.7737C12.4276 10.8976 11.8944 11.0216 11.6743 11.4866C11.4853 11.9205 11.7673 12.3545 11.8634 12.5095C12.3346 13.3154 13.1808 13.8114 13.6519 14.2143C13.7139 14.2763 13.7759 14.3383 13.81 14.4003C13.779 14.4313 13.6209 14.5553 13.2769 14.7103C11.1753 15.5782 10.8002 15.4542 10.5181 15.1752C9.954 14.6483 9.26277 14.6483 9.04579 13.7804C8.88771 13.2534 8.79472 12.5715 8.73273 12.0135C9.48595 10.3087 10.8343 8.88284 12.4958 7.95293H12.4865ZM8.12828 13.5324C8.15928 13.6874 8.22127 13.9353 8.25227 14.0593C8.59634 15.1752 9.50765 15.3302 9.94471 15.7332C10.2578 16.0121 10.6018 16.1361 11.011 16.1361C11.5751 16.1361 12.3284 15.8881 13.3327 15.4852C13.3947 15.4542 13.4567 15.4232 13.5527 15.3922C13.9929 15.2062 14.5261 14.9272 14.588 14.4623C14.65 14.0283 14.337 13.7184 13.9309 13.4084C13.4908 13.0364 12.8646 12.6335 12.5516 12.0755C12.4276 11.8895 12.4276 11.7966 12.4276 11.7656C12.5205 11.6726 12.9297 11.5796 13.2118 11.5176C13.8689 11.3626 14.7182 11.1766 15.3134 10.5877C15.7194 10.1847 15.7845 9.65776 15.5025 9.13081C15.1274 8.44888 14.1231 7.85994 13.4319 7.48798C14.4362 7.05402 15.5335 6.80604 16.6307 6.77505V18.1199C16.6307 18.0889 16.5998 18.0579 16.5998 18.0269C16.0976 16.973 15.2204 16.3841 14.4982 16.6321C13.3699 17.035 12.7437 18.3989 13.5249 19.2358C13.6829 19.3908 14.151 19.8558 14.2161 20.0417C14.1541 20.0727 14.058 20.1037 13.7759 20.1347C13.3358 20.1967 11.9874 20.3517 11.9254 21.2196C11.8634 21.9945 12.9607 22.6765 13.7139 22.8935H13.7449C13.7759 22.9554 13.7449 23.1724 13.5249 23.6064C13.4319 23.7614 13.3358 23.9164 13.2428 24.0713C9.22868 22.3665 6.9411 17.9029 8.13139 13.5324H8.12828ZM19.9505 24.2573C20.6727 23.4824 21.1749 22.5525 21.55 21.5916C22.2071 21.7776 22.8673 22.0255 23.4625 22.3045C22.3962 23.3584 21.0788 24.1333 19.6374 24.5673C19.7304 24.5053 19.8575 24.3813 19.9505 24.2573ZM24.0576 21.6846C23.5865 21.4366 23.0843 21.2196 22.4582 21.0336C22.2381 20.9716 21.987 20.8787 21.832 20.8477C22.3032 19.3908 22.5543 17.779 22.5853 16.2601H26.1902C26.0972 18.2439 25.344 20.1347 24.0576 21.6846Z" fill="#FDFEFF"/>
<defs>
<linearGradient id="paint0_linear_2041_8560" x1="30.6918" y1="7.56873" x2="6.45004" y2="24.6269" gradientUnits="userSpaceOnUse">
<stop stop-color="#9059E5"/>
<stop offset="1" stop-color="#3862FF"/>
</linearGradient>
<linearGradient id="paint1_linear_2041_8560" x1="15.1282" y1="30.1462" x2="17.6946" y2="1.1733" gradientUnits="userSpaceOnUse">
<stop stop-color="#9059E5"/>
<stop offset="1" stop-color="#3862FF"/>
</linearGradient>
</defs>
</svg>
