<svg width="34" height="34" viewBox="0 0 34 34" fill="none" xmlns="http://www.w3.org/2000/svg">
<g id="Group 33509">
<g id="Group">
<g id="Group_2">
<path id="Vector" opacity="0.4" d="M23.392 33.1191C19.8064 34.1941 16.6996 32.8641 16.9539 28.1348C17.2082 23.4054 11.8578 26.4463 4.35084 20.5595C-3.15682 14.673 -0.388655 7.03728 8.3745 1.90497C17.1377 -3.22734 33.5658 2.07027 33.266 17.0704C32.9661 32.0705 23.392 33.1191 23.392 33.1191Z" fill="url(#paint0_linear_2041_8562)"/>
<path id="Vector_2" d="M0.548667 18.1189C-0.144008 13.697 3.01119 7.70417 8.76384 4.72621C14.5165 1.74825 33.6209 -3.78267 32.3839 14.6725C31.1468 33.1277 17.1971 30.7585 12.2145 29.5327C7.23198 28.3065 1.43522 23.7775 0.548667 18.1189Z" fill="url(#paint1_linear_2041_8562)"/>
</g>
</g>
<g id="Group_3">
<path id="Vector_3" d="M14.9927 21.2111C14.8902 21.0269 14.6586 20.9605 14.4763 21.063C14.3871 21.1124 14.3226 21.194 14.2941 21.2908C14.2656 21.3876 14.277 21.4921 14.3264 21.5794L15.3249 23.3829C14.1194 23.0392 13.0108 22.3995 12.1052 21.5243C9.05832 18.5818 8.97289 13.7086 11.9135 10.6617C13.0431 9.49227 14.4839 8.72342 16.0824 8.43677C16.183 8.41968 16.2703 8.36273 16.3273 8.2792C16.3861 8.19567 16.407 8.09505 16.3899 7.99444C16.352 7.78941 16.1602 7.65462 15.9476 7.6869C14.1916 8.00203 12.6064 8.84682 11.3649 10.132C9.80059 11.7514 8.96149 13.8871 9.00136 16.1443C9.04122 18.4015 9.95435 20.5068 11.5756 22.0711C12.447 22.9121 13.4626 23.5423 14.5997 23.9467L13.0886 24.2485C12.9899 24.2694 12.9026 24.3264 12.8475 24.4099C12.7906 24.4934 12.7716 24.5959 12.7906 24.6946C12.8266 24.8712 12.9823 25.0003 13.1645 25.0003C13.1892 25.0003 13.2139 24.9984 13.2386 24.9927L16.1944 24.4023C16.3121 24.3776 16.4146 24.2979 16.4659 24.1897C16.5171 24.0796 16.5114 23.9505 16.4526 23.8461L14.9927 21.2092V21.2111Z" fill="white"/>
<path id="Vector_4" d="M23.306 9.92508C22.446 9.09548 21.4475 8.47091 20.3312 8.06655L21.8974 7.75331C22.1024 7.71155 22.2372 7.51032 22.1954 7.30529C22.1746 7.20657 22.1176 7.11924 22.0341 7.06419C21.9505 7.00724 21.848 6.98826 21.7474 7.00724L18.7916 7.59764C18.6739 7.62042 18.5714 7.70205 18.522 7.81026C18.4936 7.86911 18.4841 7.93746 18.4917 8.0077C18.4708 8.15388 18.5372 8.29815 18.6606 8.37978L19.9952 10.7907C20.0939 10.9673 20.335 11.0375 20.5135 10.9388C20.6027 10.8895 20.6672 10.8078 20.6957 10.711C20.7242 10.6123 20.7128 10.5098 20.6634 10.4225L19.6839 8.65126C20.8438 9.00436 21.9107 9.63083 22.782 10.4699C24.259 11.8956 25.0905 13.8111 25.1266 15.8614C25.1626 17.9135 24.3976 19.8556 22.9719 21.3326C21.8423 22.502 20.4015 23.2708 18.803 23.5575C18.7024 23.5746 18.6151 23.6315 18.5581 23.715C18.4993 23.7986 18.4784 23.8992 18.4955 23.9998C18.5277 24.1821 18.6853 24.313 18.8695 24.313C18.8922 24.313 18.9131 24.3111 18.9359 24.3073C20.6919 23.9941 22.2771 23.1474 23.5186 21.8622C25.0848 20.2391 25.9258 18.1034 25.8859 15.85C25.8461 13.5947 24.931 11.4913 23.3079 9.92318L23.306 9.92508Z" fill="white"/>
</g>
</g>
<defs>
<linearGradient id="paint0_linear_2041_8562" x1="30.6918" y1="7.56873" x2="6.45004" y2="24.6269" gradientUnits="userSpaceOnUse">
<stop stop-color="#9059E5"/>
<stop offset="1" stop-color="#3862FF"/>
</linearGradient>
<linearGradient id="paint1_linear_2041_8562" x1="15.1282" y1="30.1462" x2="17.6946" y2="1.1733" gradientUnits="userSpaceOnUse">
<stop stop-color="#9059E5"/>
<stop offset="1" stop-color="#3862FF"/>
</linearGradient>
</defs>
</svg>
