<svg width="34" height="34" viewBox="0 0 34 34" fill="none" xmlns="http://www.w3.org/2000/svg">
<g id="Group 33508">
<g id="Group">
<path id="Vector" opacity="0.4" d="M23.392 33.1191C19.8064 34.1941 16.6996 32.8641 16.9539 28.1348C17.2082 23.4054 11.8578 26.4463 4.35084 20.5595C-3.15682 14.673 -0.388655 7.03728 8.3745 1.90497C17.1377 -3.22734 33.5658 2.07027 33.266 17.0704C32.9661 32.0705 23.392 33.1191 23.392 33.1191Z" fill="url(#paint0_linear_2041_8561)"/>
<path id="Vector_2" d="M0.548667 18.1189C-0.144008 13.697 3.01119 7.70417 8.76384 4.72621C14.5165 1.74825 33.6209 -3.78267 32.3839 14.6725C31.1468 33.1277 17.1971 30.7585 12.2145 29.5327C7.23198 28.3065 1.43522 23.7775 0.548667 18.1189Z" fill="url(#paint1_linear_2041_8561)"/>
</g>
<path id="Subtract" fill-rule="evenodd" clip-rule="evenodd" d="M24.5282 16.6932H24.0157V14.0768C24.0157 10.1668 20.8832 7.00012 17.0154 7.00012C13.1475 7.00012 10.0151 10.1668 10.0151 14.0768V16.6932H9.50256C8.6717 16.6932 8 17.3722 8 18.2122V21.2501C8 22.0901 8.6717 22.7691 9.50256 22.7691H10.0469C10.1743 23.2229 10.6231 23.5768 11.1325 23.5768H12.5077C13.1157 23.5768 13.6251 23.0587 13.6251 22.4473V17.0182C13.6251 16.4036 13.1125 15.8855 12.5077 15.8855H11.1325C10.846 15.8855 10.6199 15.982 10.3971 16.1429V14.0736C10.3971 10.3888 13.3704 7.41526 16.9835 7.41526C20.5967 7.41526 23.57 10.421 23.57 14.0736V16.1429C23.379 15.982 23.1211 15.8855 22.8346 15.8855H21.4594C20.8514 15.8855 20.342 16.4036 20.342 17.0182V22.4473C20.342 23.0619 20.8546 23.5768 21.4594 23.5768H22.8346C23.1211 23.5768 23.3472 23.4803 23.57 23.3194V24.4168L16.1527 25.6139C16.0572 25.6461 15.9617 25.7427 15.9935 25.8392C15.9935 25.9358 16.089 26.0001 16.1845 26.0001H16.2163L23.8247 24.7708C23.9202 24.7708 23.9838 24.6742 23.9838 24.5777V22.7691H24.4963C25.3272 22.7691 25.9989 22.0901 25.9989 21.2501V18.2122C26.0307 17.3722 25.3591 16.6932 24.5282 16.6932ZM10 17.4213C10 17.3109 10.0895 17.2213 10.2 17.2213H12.8C12.9105 17.2213 13 17.3109 13 17.4213V22.0213C13 22.1318 12.9105 22.2213 12.8 22.2213H10.2C10.0895 22.2213 10 22.1318 10 22.0213V21.7213H9.2C9.08954 21.7213 9 21.6318 9 21.5213V17.9213C9 17.8109 9.08954 17.7213 9.2 17.7213H10V17.4213ZM24 17.4213C24 17.3109 23.9105 17.2213 23.8 17.2213H21.2C21.0895 17.2213 21 17.3109 21 17.4213V22.0213C21 22.1318 21.0895 22.2213 21.2 22.2213H23.8C23.9105 22.2213 24 22.1318 24 22.0213V21.7213H24.8C24.9105 21.7213 25 21.6318 25 21.5213V17.9213C25 17.8109 24.9105 17.7213 24.8 17.7213H24V17.4213Z" fill="#FDFEFF"/>
</g>
<defs>
<linearGradient id="paint0_linear_2041_8561" x1="30.6918" y1="7.56873" x2="6.45004" y2="24.6269" gradientUnits="userSpaceOnUse">
<stop stop-color="#9059E5"/>
<stop offset="1" stop-color="#3862FF"/>
</linearGradient>
<linearGradient id="paint1_linear_2041_8561" x1="15.1282" y1="30.1462" x2="17.6946" y2="1.1733" gradientUnits="userSpaceOnUse">
<stop stop-color="#9059E5"/>
<stop offset="1" stop-color="#3862FF"/>
</linearGradient>
</defs>
</svg>
