<svg width="34" height="34" viewBox="0 0 34 34" fill="none" xmlns="http://www.w3.org/2000/svg">
<path opacity="0.4" d="M23.392 33.1191C19.8064 34.1941 16.6996 32.8641 16.9539 28.1348C17.2082 23.4054 11.8578 26.4463 4.35084 20.5595C-3.15682 14.673 -0.388655 7.03728 8.3745 1.90497C17.1377 -3.22734 33.5658 2.07027 33.266 17.0704C32.9661 32.0705 23.392 33.1191 23.392 33.1191Z" fill="url(#paint0_linear_2041_8559)"/>
<path d="M0.548667 18.1189C-0.144008 13.697 3.01119 7.70417 8.76384 4.72621C14.5165 1.74825 33.6209 -3.78267 32.3839 14.6725C31.1468 33.1277 17.1971 30.7585 12.2145 29.5327C7.23198 28.3065 1.43522 23.7775 0.548667 18.1189Z" fill="url(#paint1_linear_2041_8559)"/>
<path d="M11 8.76542V23.2343C11 24.2077 11.7922 24.9999 12.7655 24.9999H20.726C21.6993 24.9999 22.4915 24.2077 22.4915 23.2343V8.76542C22.4915 7.79209 21.6993 6.99988 20.726 6.99988H12.7655C11.7922 6.99988 11 7.79209 11 8.76542ZM12.7655 7.70522H20.726C21.3105 7.70522 21.7862 8.18083 21.7862 8.76542V23.2343C21.7862 23.8189 21.3105 24.2945 20.726 24.2945H12.7655C12.181 24.2945 11.7053 23.8189 11.7053 23.2343V8.76542C11.7053 8.18083 12.181 7.70522 12.7655 7.70522Z" fill="white"/>
<path d="M13.9406 21.055H19.5509C20.2753 21.055 20.8643 20.466 20.8643 19.7415V9.83741C20.8643 9.11293 20.2753 8.52393 19.5509 8.52393H13.9406C13.2161 8.52393 12.6271 9.11293 12.6271 9.83741V19.7415C12.6271 20.466 13.2161 21.055 13.9406 21.055ZM13.1911 9.83741C13.1911 9.42363 13.5268 9.08789 13.9406 9.08789H19.5509C19.9646 9.08789 20.3004 9.42363 20.3004 9.83741V19.7415C20.3004 20.1553 19.9646 20.491 19.5509 20.491H13.9406C13.5268 20.491 13.1911 20.1553 13.1911 19.7415V9.83741Z" fill="white"/>
<path d="M16.7457 21.5042C16.0816 21.5042 15.5412 22.0446 15.5412 22.7087C15.5412 23.3728 16.0816 23.9132 16.7457 23.9132C17.4098 23.9132 17.9502 23.3728 17.9502 22.7087C17.9502 22.0446 17.4098 21.5042 16.7457 21.5042ZM16.7457 23.4906C16.3143 23.4906 15.9638 23.1401 15.9638 22.7087C15.9638 22.2772 16.3143 21.9268 16.7457 21.9268C17.1772 21.9268 17.5276 22.2772 17.5276 22.7087C17.5276 23.1401 17.1772 23.4906 16.7457 23.4906Z" fill="white"/>
<defs>
<linearGradient id="paint0_linear_2041_8559" x1="30.6918" y1="7.56873" x2="6.45004" y2="24.6269" gradientUnits="userSpaceOnUse">
<stop stop-color="#9059E5"/>
<stop offset="1" stop-color="#3862FF"/>
</linearGradient>
<linearGradient id="paint1_linear_2041_8559" x1="15.1282" y1="30.1462" x2="17.6946" y2="1.1733" gradientUnits="userSpaceOnUse">
<stop stop-color="#9059E5"/>
<stop offset="1" stop-color="#3862FF"/>
</linearGradient>
</defs>
</svg>
