<svg width="84" height="89" viewBox="0 0 84 89" fill="none" xmlns="http://www.w3.org/2000/svg">
<g id="Group 34184">
<g id="Group">
<g id="Group_2">
<g id="Group_3">
<path id="Vector" d="M15.6414 28.4099L10.48 25.4123C13.3902 23.7327 16.0263 23.5752 17.9334 24.6833L23.0947 27.6809C21.1935 26.5729 18.5516 26.7303 15.6414 28.4099Z" fill="url(#paint0_linear_1339_21777)"/>
</g>
<path id="Vector_2" d="M15.6338 28.4107L10.4724 25.4131C4.68707 28.7548 0.0156183 36.8439 0.0331144 43.4924C0.0447788 46.7933 1.20535 49.1145 3.08909 50.2109L8.25044 53.2085C6.37253 52.1179 5.20612 49.791 5.19446 46.49C5.17696 39.8474 9.84842 31.7525 15.6338 28.4107Z" fill="url(#paint1_linear_1339_21777)"/>
<path id="Vector_3" d="M15.6381 28.406C9.85269 31.7478 5.18124 39.8368 5.19873 46.4853C5.21623 53.128 9.92268 55.8107 15.7022 52.469C21.4876 49.1331 26.159 41.0382 26.1416 34.3897C26.1241 27.747 21.4176 25.0643 15.6381 28.406Z" fill="url(#paint2_linear_1339_21777)"/>
<path id="Vector_4" d="M16.1137 31.7827C20.4002 29.3041 23.8877 31.2928 23.9052 36.2208C23.9169 41.1489 20.4527 47.1501 16.1661 49.6287C11.8796 52.1073 8.39205 50.1186 8.37455 45.1905C8.35706 40.2624 11.8271 34.2613 16.1137 31.7827Z" fill="url(#paint3_linear_1339_21777)"/>
</g>
<g id="Group_4">
<path id="Vector_5" d="M13.9071 19.8275L20.748 15.8501C20.7072 16.0017 19.4183 20.2591 18.9634 27.6366C17.8729 28.0274 14.5428 29.7012 12.1225 31.6432C12.5715 24.2482 13.8663 19.9792 13.9071 19.8275Z" fill="#919BBD"/>
<path id="Vector_6" d="M19.6903 11.2802L26.5312 7.30273C23.726 8.92987 21.679 11.8226 20.7459 15.8525L13.9049 19.8299C14.838 15.7942 16.8851 12.9073 19.6903 11.2802Z" fill="#919BBD"/>
<path id="Vector_7" d="M29.5997 5.32588C25.9896 4.29361 22.5662 4.19447 19.5861 5.0926C14.7338 6.55061 11.3163 10.5689 9.94574 16.4184C9.77077 16.9958 8.66852 20.8857 8.14947 27.4876C8.13197 27.7384 7.93952 27.7092 8.03866 27.96C9.9749 28.7357 12.1269 31.5758 12.1269 31.5758C12.5818 24.2275 13.8649 19.9876 13.9057 19.836C15.7428 11.8869 21.9247 8.3877 29.6405 10.2015C29.6463 8.57432 29.6288 6.95302 29.5938 5.32588H29.5997Z" fill="#A5B0D6"/>
</g>
<g id="Group_5">
<path id="Vector_8" d="M11.7507 56.3501C7.34223 53.7884 7.35373 45.5417 11.7764 37.9305C16.1991 30.3194 23.3582 26.226 27.7667 28.7877C32.1752 31.3494 32.1637 39.5961 27.741 47.2072C23.3184 54.8184 16.1593 58.9118 11.7507 56.3501Z" fill="#45414A"/>
<path id="Vector_9" d="M24.6796 26.981C22.6209 25.7854 19.7748 25.9546 16.6314 27.7683C10.3853 31.3725 5.34055 40.1147 5.35805 47.2881C5.36971 50.8515 6.62943 53.3593 8.65898 54.5432L11.7558 56.3453C9.72624 55.1672 8.46652 52.6594 8.45485 49.0902C8.43736 41.9168 13.4821 33.1746 19.7282 29.5704C22.8716 27.7567 25.7177 27.5875 27.7764 28.7831L24.6796 26.981Z" fill="url(#paint4_linear_1339_21777)"/>
</g>
</g>
<g id="Group_6">
<path id="Vector_10" d="M58.3484 84.0767C53.9399 81.515 53.9514 73.2682 58.3741 65.6571C62.7968 58.0459 69.9559 53.9525 74.3644 56.5142C78.7729 59.0759 78.7614 67.3226 74.3387 74.9338C69.916 82.545 62.7569 86.6384 58.3484 84.0767Z" fill="#4D4852"/>
<path id="Vector_11" d="M71.2733 54.7154C69.2146 53.5198 66.3686 53.6889 63.2251 55.5027C56.979 59.1069 51.9343 67.8491 51.9518 75.0225C51.9635 78.5859 53.2232 81.0936 55.2527 82.2775L58.3495 84.0796C56.32 82.9016 55.0603 80.3938 55.0486 76.8246C55.0311 69.6512 60.0758 60.909 66.3219 57.3048C69.4654 55.491 72.3114 55.3219 74.3701 56.5175L71.2733 54.7154Z" fill="url(#paint5_linear_1339_21777)"/>
<g id="Group_7">
<path id="Vector_12" d="M72.4871 61.584L67.3257 58.5864C70.2359 56.9067 72.872 56.7493 74.7791 57.8573L79.9404 60.855C78.0392 59.7469 75.3973 59.9044 72.4871 61.584Z" fill="#BFC0E3"/>
</g>
<path id="Vector_13" d="M72.4844 61.5873L67.323 58.5896C61.5377 61.9314 56.8662 70.0204 56.8837 76.6689C56.8954 79.9698 58.0559 82.291 59.9397 83.3874L65.101 86.385C63.2231 85.2945 62.0567 82.9675 62.045 79.6666C62.0275 73.0239 66.699 64.929 72.4844 61.5873Z" fill="url(#paint6_linear_1339_21777)"/>
<path id="Vector_14" d="M72.4847 61.5864C66.6994 64.9282 62.0279 73.0172 62.0454 79.6657C62.0629 86.3084 66.7694 88.9911 72.5489 85.6494C78.3343 82.3135 83.0057 74.2186 82.9882 67.5701C82.9707 60.9274 78.2643 58.2447 72.4847 61.5864Z" fill="url(#paint7_linear_1339_21777)"/>
<path id="Vector_15" d="M72.4863 63.826C67.7799 66.5438 63.9774 73.1281 63.9949 78.5344C64.0124 83.9407 67.8382 86.1219 72.5446 83.4042C77.2511 80.6864 81.0536 74.1021 81.0361 68.6958C81.0186 63.2895 77.1928 61.1083 72.4863 63.826Z" fill="#61A2F7"/>
<path id="Vector_16" d="M67.4801 83.354C64.4529 81.5949 64.4612 75.9314 67.4987 70.7041C70.5361 65.4769 75.4525 62.6653 78.4797 64.4243C81.5069 66.1834 81.4986 71.8469 78.4611 77.0742C75.4237 82.3015 70.5073 85.113 67.4801 83.354Z" fill="#EDEAFB"/>
</g>
<g id="Group_8">
<path id="Vector_17" d="M26.4291 1.10872C25.4435 1.40615 24.5162 1.80273 23.6589 2.30429L16.8179 6.28173C17.681 5.78018 18.6083 5.37777 19.5881 5.08616C24.3762 3.65149 30.3249 4.7654 36.326 8.23546L43.167 4.25802C37.1658 0.787959 31.223 -0.331791 26.4291 1.10872Z" fill="url(#paint8_linear_1339_21777)"/>
<path id="Vector_18" d="M36.323 8.2294L43.164 4.25195L51.6904 9.17419L44.8495 13.1516L36.323 8.2294Z" fill="#EEEBFC"/>
<path id="Vector_19" d="M44.8508 13.1547L51.6918 9.17725C55.0627 11.1193 58.3519 13.7437 61.4662 16.9688C65.9161 21.5703 69.7944 27.239 72.6812 33.3568C75.5448 39.428 77.3235 45.7032 77.8251 51.5003C78.1284 54.982 78.6182 61.0182 78.6357 61.788C78.6357 61.8988 78.6241 63.3043 78.6241 63.3043L78.1225 64.2316L71.7714 65.7479C71.9231 66.7919 71.3282 59.461 70.9841 55.4777C70.4826 49.6749 68.7038 43.3996 65.8403 37.3343C62.9534 31.2165 59.0751 25.5478 54.6253 20.9463C51.511 17.7212 48.2217 15.1026 44.8508 13.1547Z" fill="url(#paint9_linear_1339_21777)"/>
<path id="Vector_20" d="M70.9803 55.4721C70.4787 49.6693 68.7 43.394 65.8364 37.3287C62.9496 31.2109 59.0713 25.5422 54.6214 20.9407C51.5071 17.7156 48.2179 15.097 44.847 13.1491L36.3264 8.22687C30.3194 4.76264 24.3765 3.64289 19.5884 5.07757C16.2467 6.08068 13.5873 8.30269 11.8027 11.4986C13.0857 12.7817 14.3688 14.0647 15.6577 15.3536C19.4426 8.96754 27.4558 7.81279 36.3147 12.9275L44.8353 17.8497C47.6872 19.4944 50.469 21.7105 53.0993 24.4399C60.7509 32.354 66.0406 43.5456 66.9154 53.6409C67.032 54.9881 67.1778 56.7202 67.3236 58.5865C67.5277 61.2225 70.4262 65.3108 70.4262 65.3108L71.7734 65.754C71.651 61.4208 71.3302 59.4671 70.9861 55.4838L70.9803 55.4721Z" fill="url(#paint10_linear_1339_21777)"/>
</g>
<path id="Vector_21" d="M19.1789 80.1943C20.3045 80.1943 21.4301 79.9085 22.4332 79.337L23.1855 78.9113L22.1008 77.0158L21.3485 77.4416C20.0071 78.2056 18.3333 78.2056 16.9919 77.4416L10.1685 73.5341C5.85275 71.0672 3.28666 65.7017 3.92235 60.4937L5.53783 50.8184L3.37998 50.4568L1.75868 60.1788C1.01218 66.2849 4.02733 72.5368 9.0837 75.4295L15.9072 79.337C16.9161 79.9144 18.0417 80.2001 19.1731 80.2001L19.1789 80.1943Z" fill="#DEE0F1"/>
<path id="Vector_22" d="M17.5417 79.09C17.5767 80.9096 21.7524 82.3093 25.03 82.2393C25.5666 82.2277 26.0448 82.1868 26.4589 82.111C26.9721 82.0235 27.392 81.8952 27.7419 81.7203C28.8383 81.1837 29.1883 80.2564 29.1649 79.1017C29.1416 78.0228 28.7975 76.9847 27.8411 76.3315C27.5145 76.1099 27.1179 75.9291 26.6397 75.8124C26.1498 75.69 25.5724 75.6316 24.8959 75.6433C21.6183 75.7075 17.5009 77.2704 17.5417 79.09Z" fill="#5B545F"/>
<path id="Vector_23" d="M26.7388 80.5124C26.9837 81.1714 27.3453 81.5913 27.7302 81.7196C28.8266 81.1831 29.1765 80.2558 29.1532 79.101C29.1299 78.0221 28.7858 76.984 27.8293 76.3308C27.5611 76.3308 27.2928 76.465 27.0595 76.7624C26.4122 77.573 26.2664 79.2527 26.7329 80.5182L26.7388 80.5124Z" fill="#45414A"/>
<path id="Vector_24" d="M25.8795 80.9987C26.0369 81.4186 26.2236 81.7627 26.4393 82.031C26.9526 81.9435 27.3725 81.8152 27.7224 81.6403C28.8188 81.1037 29.1687 80.1764 29.1454 79.0217C29.1221 77.9428 28.778 76.9047 27.8215 76.2515C27.4949 76.0299 27.0984 75.8491 26.6201 75.7324C26.5093 75.8141 26.4044 75.9132 26.3052 76.0415C25.4479 77.1146 25.2554 79.3308 25.8736 81.0046L25.8795 80.9987Z" fill="#4D4852"/>
</g>
<defs>
<linearGradient id="paint0_linear_1339_21777" x1="23.0947" y1="26.1938" x2="10.48" y2="26.1938" gradientUnits="userSpaceOnUse">
<stop offset="0.14" stop-color="#AABBD6"/>
<stop offset="0.2" stop-color="#AEBDD8"/>
<stop offset="0.71" stop-color="#CBCDE8"/>
<stop offset="1" stop-color="#D7D3EE"/>
</linearGradient>
<linearGradient id="paint1_linear_1339_21777" x1="1.98684" y1="49.581" x2="14.5782" y2="27.7751" gradientUnits="userSpaceOnUse">
<stop offset="0.14" stop-color="#AABBD6"/>
<stop offset="0.2" stop-color="#AEBDD8"/>
<stop offset="0.71" stop-color="#CBCDE8"/>
<stop offset="1" stop-color="#D7D3EE"/>
</linearGradient>
<linearGradient id="paint2_linear_1339_21777" x1="8.29554" y1="53.2155" x2="23.0564" y2="27.6537" gradientUnits="userSpaceOnUse">
<stop offset="0.14" stop-color="#AABBD6"/>
<stop offset="0.2" stop-color="#AEBDD8"/>
<stop offset="0.71" stop-color="#CBCDE8"/>
<stop offset="1" stop-color="#D7D3EE"/>
</linearGradient>
<linearGradient id="paint3_linear_1339_21777" x1="23.8994" y1="40.7057" x2="8.36872" y2="40.7057" gradientUnits="userSpaceOnUse">
<stop offset="0.14" stop-color="#AABBD6"/>
<stop offset="0.2" stop-color="#AEBDD8"/>
<stop offset="0.71" stop-color="#CBCDE8"/>
<stop offset="1" stop-color="#D7D3EE"/>
</linearGradient>
<linearGradient id="paint4_linear_1339_21777" x1="6.26784" y1="53.1727" x2="22.2126" y2="25.558" gradientUnits="userSpaceOnUse">
<stop offset="0.17" stop-color="#5A545E"/>
<stop offset="0.45" stop-color="#615A65"/>
<stop offset="0.79" stop-color="#706875"/>
</linearGradient>
<linearGradient id="paint5_linear_1339_21777" x1="52.8616" y1="80.907" x2="68.8064" y2="53.2865" gradientUnits="userSpaceOnUse">
<stop offset="0.17" stop-color="#5A545E"/>
<stop offset="0.45" stop-color="#615A65"/>
<stop offset="0.79" stop-color="#706875"/>
</linearGradient>
<linearGradient id="paint6_linear_1339_21777" x1="58.8316" y1="82.7634" x2="71.4229" y2="60.9574" gradientUnits="userSpaceOnUse">
<stop offset="0.14" stop-color="#AABBD6"/>
<stop offset="0.2" stop-color="#AEBDD8"/>
<stop offset="0.71" stop-color="#CBCDE8"/>
<stop offset="1" stop-color="#D7D3EE"/>
</linearGradient>
<linearGradient id="paint7_linear_1339_21777" x1="65.1364" y1="86.4017" x2="79.8973" y2="60.8341" gradientUnits="userSpaceOnUse">
<stop stop-color="#D8DCED"/>
<stop offset="0.82" stop-color="#EDEAFB"/>
</linearGradient>
<linearGradient id="paint8_linear_1339_21777" x1="32.856" y1="10.23" x2="27.1231" y2="0.3039" gradientUnits="userSpaceOnUse">
<stop offset="0.29" stop-color="#EEEBFC"/>
<stop offset="1" stop-color="#EAE8FA"/>
</linearGradient>
<linearGradient id="paint9_linear_1339_21777" x1="80.1346" y1="63.071" x2="49.6855" y2="10.332" gradientUnits="userSpaceOnUse">
<stop stop-color="#EAE8FA"/>
<stop offset="0.71" stop-color="#EEEBFC"/>
</linearGradient>
<linearGradient id="paint10_linear_1339_21777" x1="37.3878" y1="46.2284" x2="53.5775" y2="18.188" gradientUnits="userSpaceOnUse">
<stop stop-color="#D5CEEE"/>
<stop offset="0.1" stop-color="#CDC9EA"/>
<stop offset="0.59" stop-color="#B0B6DB"/>
<stop offset="0.86" stop-color="#A5B0D6"/>
</linearGradient>
</defs>
</svg>
