<svg width="32" height="32" viewBox="0 0 32 32" fill="none" xmlns="http://www.w3.org/2000/svg">
<g clip-path="url(#clip0_2170_13941)">
<path d="M32 16C32 24.8365 24.8365 32 16 32C7.1635 32 0 24.8365 0 16C0 16.0037 16 0.0018125 16 0C24.8365 0 32 7.1635 32 16Z" fill="#0052B4"/>
<path d="M16 0C15.9991 0 15.9982 0.001 15.9973 0.001L16 0Z" fill="#F0F0F0"/>
<path d="M15.9572 16H16C16 15.9855 16 15.9716 16 15.9572C15.9857 15.9715 15.9715 15.9857 15.9572 16Z" fill="#F0F0F0"/>
<path d="M16 8.34793C16 5.53262 16 3.68781 16 0.00012207H15.9973C7.162 0.00155957 0 7.16437 0 16.0001H8.34781V11.2993L13.0486 16.0001H15.9572C15.9716 15.9858 15.9858 15.9716 16.0001 15.9572C16.0001 14.8793 16.0001 13.9175 16.0001 13.0487L11.2992 8.34793H16Z" fill="#F0F0F0"/>
<path d="M8.09466 2.08691C5.59223 3.51185 3.51185 5.59223 2.08691 8.09466V16H6.26085V6.26091V6.26085H16C16 4.94441 16 3.69029 16 2.08691H8.09466Z" fill="#D80027"/>
<path d="M16 14.0324L10.3155 8.34793H8.3479C8.3479 8.34787 8.3479 8.34793 8.3479 8.34793L16 16H16C16 16 16 14.6434 16 14.0324Z" fill="#D80027"/>
<path d="M9.64972 18.7827L10.5278 20.6188L12.5108 20.1605L11.6228 21.9919L13.2174 23.2565L11.232 23.704L11.2375 25.7392L9.64972 24.4659L8.06197 25.7392L8.06753 23.704L6.08203 23.2565L7.67672 21.9919L6.78859 20.1605L8.77166 20.6188L9.64972 18.7827Z" fill="#F0F0F0"/>
<path d="M23.9553 22.2609L24.3944 23.1789L25.3859 22.9497L24.9418 23.8654L25.7392 24.4977L24.7464 24.7215L24.7492 25.7391L23.9553 25.1024L23.1614 25.7391L23.1642 24.7215L22.1715 24.4977L22.9688 23.8654L22.5248 22.9497L23.5163 23.1789L23.9553 22.2609Z" fill="#F0F0F0"/>
<path d="M19.8708 12.5219L20.3098 13.44L21.3013 13.2107L20.8573 14.1264L21.6546 14.7587L20.6619 14.9825L20.6646 16.0001L19.8708 15.3634L19.0769 16.0001L19.0796 14.9825L18.0869 14.7587L18.8842 14.1264L18.4402 13.2107L19.4317 13.44L19.8708 12.5219Z" fill="#F0F0F0"/>
<path d="M23.9553 6.95654L24.3944 7.87467L25.3859 7.64548L24.9419 8.56117L25.7391 9.19342L24.7464 9.41723L24.7492 10.4349L23.9553 9.79817L23.1614 10.4349L23.1642 9.41723L22.1715 9.19342L22.9688 8.56117L22.5248 7.64548L23.5163 7.87467L23.9553 6.95654Z" fill="#F0F0F0"/>
<path d="M27.523 11.1305L27.962 12.0486L28.9535 11.8194L28.5095 12.7351L29.3068 13.3674L28.3141 13.5912L28.3168 14.6087L27.523 13.9721L26.7291 14.6087L26.7318 13.5912L25.7391 13.3674L26.5364 12.7351L26.0924 11.8194L27.0839 12.0486L27.523 11.1305Z" fill="#F0F0F0"/>
<path d="M24.9718 16L25.3172 17.0629H26.4348L25.5306 17.7198L25.876 18.7826L24.9718 18.1257L24.0677 18.7826L24.413 17.7198L23.5089 17.0629H24.6265L24.9718 16Z" fill="#F0F0F0"/>
</g>
<defs>
<clipPath id="clip0_2170_13941">
<rect width="32" height="32" fill="white"/>
</clipPath>
</defs>
</svg>
