<svg width="32" height="32" viewBox="0 0 32 32" fill="none" xmlns="http://www.w3.org/2000/svg">
<g clip-path="url(#clip0_1954_89804)">
<path d="M16 32C24.8366 32 32 24.8366 32 16C32 7.16344 24.8366 0 16 0C7.16344 0 0 7.16344 0 16C0 24.8366 7.16344 32 16 32Z" fill="#FDFEFF"/>
<path d="M32.0003 16.0017C32.0003 9.65829 28.3087 4.17729 22.9568 1.58929V30.414C28.3087 27.826 32.0003 22.345 32.0003 16.0017Z" fill="#D80027"/>
<path d="M0 16.0017C0 22.345 3.69156 27.826 9.0435 30.414V1.58929C3.69156 4.17729 0 9.65829 0 16.0017Z" fill="#D80027"/>
<path d="M18.7824 18.0875L21.5649 16.6962L20.1737 16.0005V14.6092L17.3911 16.0005L18.7824 13.2179H17.3911L15.9998 11.131L14.6084 13.2179H13.2171L14.6084 16.0005L11.8258 14.6092V16.0005L10.4346 16.6962L13.2171 18.0875L12.5215 19.4788H15.3041V21.5657H16.6954V19.4788H19.478L18.7824 18.0875Z" fill="#D80027"/>
</g>
<defs>
<clipPath id="clip0_1954_89804">
<rect width="32" height="32" fill="white"/>
</clipPath>
</defs>
</svg>
