<svg width="32" height="32" viewBox="0 0 32 32" fill="none" xmlns="http://www.w3.org/2000/svg">
<g clip-path="url(#clip0_2170_14757)">
<path d="M16 32C24.8366 32 32 24.8366 32 16C32 7.16344 24.8366 0 16 0C7.16344 0 0 7.16344 0 16C0 24.8366 7.16344 32 16 32Z" fill="#F0F0F0"/>
<path d="M0.551208 20.174C1.47696 23.6089 3.51727 26.586 6.2609 28.6941V20.174H0.551208Z" fill="#0052B4"/>
<path d="M14.6087 31.9391C15.0673 31.9786 15.5311 32 16 32C23.3925 32 29.6128 26.9862 31.4488 20.174H14.6087V31.9391Z" fill="#0052B4"/>
<path d="M31.4488 11.8261C29.6128 5.01381 23.3925 0 16 0C15.5311 0 15.0673 0.021375 14.6087 0.060875V11.8261H31.4488Z" fill="#0052B4"/>
<path d="M6.2609 3.30591C3.51727 5.41403 1.47696 8.3911 0.551208 11.826H6.2609V3.30591Z" fill="#0052B4"/>
<path d="M31.8646 13.9131H12.5218H12.5218V0.380371C11.0431 0.708246 9.64131 1.23968 8.34781 1.9455V13.9131H0.135438C0.046375 14.5962 0 15.2927 0 16.0001C0 16.7074 0.046375 17.4039 0.135438 18.087H8.34775H8.34781V30.0546C9.64131 30.7603 11.0431 31.2919 12.5218 31.6197V18.0872V18.0871H31.8646C31.9535 17.4039 32 16.7074 32 16.0001C32 15.2927 31.9535 14.5962 31.8646 13.9131Z" fill="#D80027"/>
</g>
<defs>
<clipPath id="clip0_2170_14757">
<rect width="32" height="32" fill="white"/>
</clipPath>
</defs>
</svg>
