<svg width="32" height="32" viewBox="0 0 32 32" fill="none" xmlns="http://www.w3.org/2000/svg">
<g id="romania" clip-path="url(#clip0_2170_15361)">
<path id="Vector" d="M21.5652 0.995125C19.8318 0.352063 17.9571 8.31859e-09 16 8.31859e-09C14.0429 -6.24917e-05 12.1681 0.352063 10.4348 0.995125L9.04352 15.9999L10.4348 31.0047C12.1681 31.648 14.0428 32 16 32C17.9571 32 19.8319 31.648 21.5652 31.0047L22.9565 16L21.5652 0.995125Z" fill="#FFDA44"/>
<path id="Vector_2" d="M32 16.0001C32 9.12068 27.658 3.25586 21.5652 0.995239V31.005C27.658 28.7441 31.9999 22.8796 32 16.0001Z" fill="#D80027"/>
<path id="Vector_3" d="M0 15.9999C0 22.8795 4.342 28.7441 10.4347 31.0049L10.4347 0.995239C4.342 3.25586 0 9.12049 0 15.9999H0Z" fill="#0052B4"/>
</g>
<defs>
<clipPath id="clip0_2170_15361">
<rect width="32" height="32" fill="white"/>
</clipPath>
</defs>
</svg>
