<svg width="32" height="32" viewBox="0 0 32 32" fill="none" xmlns="http://www.w3.org/2000/svg">
<g clip-path="url(#clip0_2170_15431)">
<path d="M16 32C24.8366 32 32 24.8366 32 16C32 7.16344 24.8366 0 16 0C7.16344 0 0 7.16344 0 16C0 24.8366 7.16344 32 16 32Z" fill="#6DA544"/>
<path d="M9.04352 19.1305C9.04352 20.2831 9.97789 21.2174 11.1305 21.2174H17.3913C17.3913 22.1779 18.17 22.9566 19.1305 22.9566H21.2174C22.1779 22.9566 22.9565 22.1779 22.9565 21.2174V19.1305H9.04352Z" fill="#F0F0F0"/>
<path d="M23.1304 9.04358V13.9131C23.1304 14.6803 22.5063 15.3045 21.7391 15.3045V17.3914C23.6571 17.3914 25.2174 15.831 25.2174 13.9131V9.04358H23.1304Z" fill="#F0F0F0"/>
<path d="M8.17397 13.9131C8.17397 14.6803 7.54984 15.3045 6.78265 15.3045V17.3914C8.70059 17.3914 10.2609 15.831 10.2609 13.9131V9.04358H8.17397V13.9131Z" fill="#F0F0F0"/>
<path d="M20 9.04358H22.0869V13.9131H20V9.04358Z" fill="#F0F0F0"/>
<path d="M16.8696 11.8261C16.8696 12.0179 16.7135 12.1739 16.5218 12.1739C16.33 12.1739 16.1739 12.0178 16.1739 11.8261V9.04346H14.087V11.8261C14.087 12.0179 13.9309 12.1739 13.7392 12.1739C13.5474 12.1739 13.3914 12.0178 13.3914 11.8261V9.04346H11.3044V11.8261C11.3044 13.1686 12.3966 14.2609 13.7392 14.2609C14.2563 14.2609 14.7358 14.0984 15.1305 13.8224C15.5252 14.0983 16.0048 14.2609 16.5218 14.2609C16.6259 14.2609 16.7283 14.2536 16.829 14.2408C16.6811 14.8501 16.1324 15.3043 15.4783 15.3043V17.3913C17.3963 17.3913 18.9566 15.8309 18.9566 13.913V11.8261V9.04346H16.8696V11.8261H16.8696Z" fill="#F0F0F0"/>
<path d="M11.3044 15.3044H14.4348V17.3914H11.3044V15.3044Z" fill="#F0F0F0"/>
</g>
<defs>
<clipPath id="clip0_2170_15431">
<rect width="32" height="32" fill="white"/>
</clipPath>
</defs>
</svg>
