<svg width="32" height="32" viewBox="0 0 32 32" fill="none" xmlns="http://www.w3.org/2000/svg">
<g id="slovakia" clip-path="url(#clip0_2170_15508)">
<path id="Vector" d="M16 32C24.8366 32 32 24.8366 32 16C32 7.16344 24.8366 0 16 0C7.16344 0 0 7.16344 0 16C0 24.8366 7.16344 32 16 32Z" fill="#F0F0F0"/>
<path id="Vector_2" d="M16 32C24.8365 32 32 24.8365 32 16C32 14.0429 31.648 12.1681 31.0048 10.4348H0.995188C0.352063 12.1681 0 14.0429 0 16C0 24.8365 7.1635 32 16 32Z" fill="#0052B4"/>
<path id="Vector_3" d="M16 32C22.8794 32 28.7441 27.658 31.0048 21.5652H0.995178C3.25587 27.658 9.12055 32 16 32Z" fill="#D80027"/>
<path id="Vector_4" d="M4.13739 9.04346V17.0251C4.13739 21.5653 10.0687 22.9565 10.0687 22.9565C10.0687 22.9565 16 21.5653 16 17.0251V9.04346H4.13739Z" fill="#F0F0F0"/>
<path id="Vector_5" d="M5.52869 9.04346V17.0251C5.52869 17.5581 5.64706 18.0615 5.88156 18.5334H14.2557C14.4902 18.0615 14.6086 17.5581 14.6086 17.0251V9.04346H5.52869Z" fill="#D80027"/>
<path id="Vector_6" d="M12.8513 14.6087H10.7644V13.2174H12.1557V11.8261H10.7644V10.4348H9.37307V11.8261H7.98182V13.2174H9.37307V14.6087H7.28607V16H9.37307V17.3913H10.7644V16H12.8513V14.6087Z" fill="#F0F0F0"/>
<path id="Vector_7" d="M7.77946 20.4756C8.67602 21.0391 9.59715 21.3662 10.0687 21.5117C10.5403 21.3662 11.4614 21.0391 12.358 20.4756C13.2621 19.9074 13.8959 19.2575 14.2558 18.5334C13.8588 18.2526 13.3745 18.087 12.8513 18.087C12.6608 18.087 12.4758 18.1096 12.2978 18.151C11.9208 17.2942 11.0648 16.6957 10.0688 16.6957C9.07271 16.6957 8.21671 17.2942 7.83971 18.151C7.66177 18.1096 7.47665 18.087 7.28621 18.087C6.76302 18.087 6.27871 18.2526 5.88177 18.5334C6.24146 19.2574 6.87527 19.9073 7.77946 20.4756Z" fill="#0052B4"/>
</g>
<defs>
<clipPath id="clip0_2170_15508">
<rect width="32" height="32" fill="white"/>
</clipPath>
</defs>
</svg>
