<svg width="32" height="32" viewBox="0 0 32 32" fill="none" xmlns="http://www.w3.org/2000/svg">
<g id="slovenia" clip-path="url(#clip0_2170_15516)">
<path id="Vector" d="M16 32C24.8366 32 32 24.8366 32 16C32 7.16344 24.8366 0 16 0C7.16344 0 0 7.16344 0 16C0 24.8366 7.16344 32 16 32Z" fill="#F0F0F0"/>
<path id="Vector_2" d="M31.0048 10.4348H13.9131V6.26086H5.56519V10.4348H0.995188C0.352063 12.1681 0 14.0429 0 16C0 17.9571 0.352063 19.8319 0.995188 21.5652L16 22.9565L31.0048 21.5652C31.6479 19.8319 32 17.9571 32 16C32 14.0429 31.6479 12.1681 31.0048 10.4348Z" fill="#0052B4"/>
<path id="Vector_3" d="M16 32C22.8794 32 28.7441 27.658 31.0048 21.5652H0.995178C3.25587 27.658 9.12055 32 16 32Z" fill="#D80027"/>
<path id="Vector_4" d="M5.56519 10.4348V11.826C5.56519 15.0211 9.73912 16 9.73912 16C9.73912 16 13.9131 15.0211 13.9131 11.826V10.4348L12.5217 11.8261L9.73912 9.73914L6.9565 11.8261L5.56519 10.4348Z" fill="#F0F0F0"/>
</g>
<defs>
<clipPath id="clip0_2170_15516">
<rect width="32" height="32" fill="white"/>
</clipPath>
</defs>
</svg>
