<svg width="32" height="32" viewBox="0 0 32 32" fill="none" xmlns="http://www.w3.org/2000/svg">
<g id="united arab emirates" clip-path="url(#clip0_2170_15823)">
<path id="Vector" d="M16 32C24.8366 32 32 24.8366 32 16C32 7.16344 24.8366 0 16 0C7.16344 0 0 7.16344 0 16C0 24.8366 7.16344 32 16 32Z" fill="#F0F0F0"/>
<path id="Vector_2" d="M9.04346 21.5652L10.4348 31.0049C12.168 31.6481 14.0428 32 16 32C22.8793 32 28.7441 27.658 31.0047 21.5652H9.04346Z" fill="black"/>
<path id="Vector_3" d="M9.04346 10.4348L10.4348 0.995062C12.168 0.351875 14.0428 0 16 0C22.8793 0 28.7441 4.342 31.0047 10.4348H9.04346Z" fill="#6DA544"/>
<path id="Vector_4" d="M0 16.0001C0 22.8795 4.34206 28.7442 10.4348 31.0049V0.995239C4.34206 3.25593 0 9.12061 0 16.0001Z" fill="#A2001D"/>
</g>
<defs>
<clipPath id="clip0_2170_15823">
<rect width="32" height="32" fill="white"/>
</clipPath>
</defs>
</svg>
